<svg version="1.1" xmlns="http://www.w3.org/2000/svg" viewBox="0 0 2698.957046508789 2800.835660298666" width="8096.871139526367" height="8402.506980895998" filter="invert(93%) hue-rotate(180deg)">
  <!-- svg-source:excalidraw -->
  
  <defs>
    <style>
      @font-face {
        font-family: "Virgil";
        src: url("https://excalidraw.com/Virgil.woff2");
      }
      @font-face {
        font-family: "Cascadia";
        src: url("https://excalidraw.com/Cascadia.woff2");
      }
    </style>
  </defs>
  <rect x="0" y="0" width="2698.957046508789" height="2800.835660298666" fill="#ffffff"></rect><g transform="translate(1222.2330503917874 1060.5003527686708) rotate(0 119.49999999999994 22.5)"><text x="0" y="32" font-family="Virgil, Segoe UI Emoji" font-size="36px" fill="#000000" text-anchor="start" style="white-space: pre;" direction="ltr">Concentration</text></g><g stroke-linecap="round" transform="translate(14.684285481770871 1014.338155110677) rotate(0 458.0593744913738 151.82072321573898)"><path d="M-0.03 0.02 C273.06 2.87, 546.53 3.34, 916.16 -0.57 M-0.11 -0.33 C322.4 1.64, 643.79 1.94, 915.77 0.18 M915.04 -1.29 C916.31 119.69, 915.22 240.95, 914.97 304.7 M916.49 0.6 C915.73 66.06, 916.61 132.82, 916.68 304.02 M915.53 303.7 C598.49 306.89, 280.15 306.03, -0.69 302.92 M915.77 303.36 C614.99 303.98, 313.63 303.84, -0.31 303.38 M-0.3 303.19 C3.06 214.46, 2.97 125.14, -0.35 -0.83 M0.39 304.16 C0.72 220.06, 0.27 134.86, -0.65 0.19" stroke="#000000" stroke-width="1" fill="none"></path></g><g stroke-linecap="round" transform="translate(18.514729817708258 26.897766113281307) rotate(0 458.0593744913738 151.82072321573898)"><path d="M-0.06 0.3 C294.85 -3.92, 588.1 -3.82, 915.36 0.6 M0.06 -0.08 C241.42 -1.74, 482.84 -1.71, 915.81 0.23 M915.96 1.32 C915.02 107.27, 915.53 212.66, 914.99 302.56 M915.41 0.31 C913.86 101.78, 914.33 201.72, 915.81 302.93 M916.6 303.1 C576.34 301.84, 235.85 301.92, -0.24 302.88 M916.18 303.53 C623.83 301.42, 331.83 301.72, 0.12 303.61 M-0.36 302.71 C1.66 210.32, 3.53 115.25, 0.37 -0.42 M0.02 303.57 C1.35 212.93, 1.31 123.54, 0.64 -0.49" stroke="#000000" stroke-width="1" fill="none"></path></g><g stroke-linecap="round" transform="translate(11.362752278645758 516.956766764323) rotate(0 458.0593744913738 151.82072321573898)"><path d="M0.09 0.32 C237.66 -0.48, 473.5 -0.16, 916.6 0.66 M-0.22 -0.24 C254.15 0.58, 508.52 0.31, 916.23 -0.3 M916.22 0.57 C914.61 88.77, 913.96 176.61, 916.15 302.76 M916.01 0.34 C917.55 79.95, 917.09 160.01, 916.33 303.14 M915.96 303.18 C715.41 301.37, 515.12 301.76, 0.19 303.6 M915.88 303.83 C566.25 301.21, 216.09 300.54, 0.29 303.32 M0.63 302.78 C-3.2 217.53, -1.09 130.7, -1.43 -1.24 M0.5 303.07 C-2.37 224.86, -1.61 145.7, -0.71 -0.57" stroke="#000000" stroke-width="1" fill="none"></path></g><g stroke-linecap="round" transform="translate(14.285481770833371 1507.0676676432295) rotate(0 458.0593744913738 151.82072321573895)"><path d="M-0.25 0.49 C358.39 2.83, 715.95 3.26, 916.06 -0.5 M-0.19 0.06 C305.94 1.8, 611.71 2, 916.12 -0.21 M915.44 0.47 C915.82 76.24, 916.43 152.14, 914.73 304.09 M916.85 0.47 C917.52 94.58, 917.1 188.9, 916.14 302.92 M916.48 304.34 C575.76 302.97, 236.23 301.88, 0.14 304.21 M916.47 303.57 C634.18 304.1, 352.63 304.18, -0.32 303.73 M0.59 304.51 C-0.62 216.62, -1.05 127.15, 1.11 0.47 M0.15 302.91 C-0.4 197.94, -0.28 91.37, -0.59 -0.18" stroke="#000000" stroke-width="1" fill="none"></path></g><g stroke-linecap="round" transform="translate(10 2016.65283203125) rotate(0 458.0593744913738 151.820723215739)"><path d="M0.42 -0.02 C205.73 1.24, 412.86 1.18, 915.41 0.05 M-0.27 0.33 C218.86 0.46, 437.6 1.15, 916.29 -0.14 M917.24 -0.18 C916.12 113.12, 916.55 228.03, 915.39 303.27 M916.48 0.53 C917.22 111.95, 917.79 223.11, 915.61 304.11 M915.9 303.32 C723.1 301.42, 529.14 301.19, -0.48 304.08 M916.21 303.9 C635.81 305.87, 355.16 306.53, 0.15 303.44 M0.79 304.98 C0.38 212.54, 1.84 122.51, 1.03 -0.13 M0.35 304.06 C-1.3 193.62, -1.76 83.1, -0.38 0.54" stroke="#000000" stroke-width="1" fill="none"></path></g><g stroke-linecap="round" transform="translate(1759.5013427734373 10) rotate(0 458.0593744913738 151.82072321573898)"><path d="M0.65 -0.41 C250.98 2.78, 501.47 2.92, 915.56 -0.51 M-0.1 -0.2 C359.8 1.07, 720.01 0.65, 915.72 0.37 M916.56 -0.53 C918.13 62.46, 916.33 126.68, 916.06 302.86 M915.93 -0.31 C917.28 77.33, 916.5 155.34, 916.84 304.16 M916.48 303.22 C677.86 304.8, 438.85 304.76, 0.32 303.07 M916.25 303.46 C615.37 307.29, 314.79 306.75, 0.3 303.31 M-1.06 303.23 C0.93 217.69, 0.6 134.78, 0.23 -0.86 M0.52 303.56 C2.12 189.6, 1.35 74.67, -0.32 0.06" stroke="#000000" stroke-width="1" fill="none"></path></g><g stroke-linecap="round" transform="translate(1762.4478759765623 495.0260416666667) rotate(0 458.0593744913738 151.82072321573898)"><path d="M-0.51 -0.32 C347.71 0.94, 696.31 -0.45, 915.35 0.63 M0.29 0.3 C228.51 -2.47, 457.05 -1.98, 915.93 -0.27 M915.59 1.04 C916.66 119.04, 918.01 235.03, 917.53 302.66 M916.84 0.4 C918.6 95.37, 918.64 189.17, 916.62 302.93 M916.51 303.16 C625.76 302.92, 334.05 302.31, 0 303.07 M915.95 303.83 C643.36 304.4, 371.25 303.84, 0.19 303.71 M0.1 302.67 C-0.46 211.74, 1.15 122.43, 1.29 0.18 M0.69 303.58 C0.05 231.45, 0.33 159.69, 0.31 0" stroke="#000000" stroke-width="1" fill="none"></path></g><g stroke-linecap="round" transform="translate(1772.3487548828123 993.8914998372395) rotate(0 458.0593744913738 151.820723215739)"><path d="M-0.44 -0.68 C344.74 -2.26, 690.65 -2.18, 916.46 -0.39 M-0.02 -0.21 C254.25 -4.05, 507.76 -3.53, 915.74 0.01 M916.66 1.44 C914.53 96.34, 914.68 189.54, 915.89 303.25 M915.79 0.67 C917.29 114.82, 917.58 231.2, 916.44 304.1 M916.52 303.93 C684.37 303.55, 454.1 303.09, -0.63 302.96 M916.2 303.86 C723.63 305.51, 530.83 305.42, 0.09 303.61 M-0.27 302.61 C-0.32 229.94, 1.16 157.81, -0.98 1.23 M-0.6 302.94 C-0.87 200.62, -0.7 96.57, -0.71 0.4" stroke="#000000" stroke-width="1" fill="none"></path></g><g stroke-linecap="round" transform="translate(1766.746826171875 1497.8790283203125) rotate(0 458.0593744913739 151.82072321573895)"><path d="M-0.08 -0.22 C295.45 -1.76, 590.21 -0.94, 915.59 -0.14 M-0.13 0.03 C200.21 1.48, 400.67 1.45, 915.81 -0.23 M917.15 1.22 C916.07 89.43, 915.51 180.19, 917 303.23 M916.17 0.64 C916.12 85.32, 916.94 170.65, 915.81 304.12 M915.93 303.9 C569 300.82, 222.36 302.04, 0.52 303.63 M916.49 303.54 C626.24 301.27, 336.2 301.36, -0.26 303.48 M0.81 303.35 C1.61 193.7, 1.56 81.01, 0.3 0.56 M0.13 303.68 C-0.31 201.67, 0.48 99.35, 0.49 0.54" stroke="#000000" stroke-width="1" fill="none"></path></g><g stroke-linecap="round" transform="translate(1772.8382975260417 2005.7023111979167) rotate(0 458.0593744913738 151.820723215739)"><path d="M-0.44 0.06 C321.39 1.78, 642.32 2.36, 916.51 -0.49 M-0.37 -0.21 C351.82 -0.57, 703.56 -0.93, 916.05 -0.08 M916.8 -0.9 C913.61 120.57, 913.88 240.26, 915.74 304.51 M916.5 -0.44 C915.34 116.42, 914.83 232.34, 915.54 304.14 M915.47 303.49 C619.82 304.7, 322.37 303.36, -0.17 304.34 M915.8 304.02 C685.53 303.45, 454.66 303.15, -0.15 303.86 M-0.2 304.76 C0.24 221.71, -0.44 138.1, -0.08 0.59 M-0.07 303.33 C-1.03 214.14, -2.37 123.65, -0.65 -0.65" stroke="#000000" stroke-width="1" fill="none"></path></g><g stroke-linecap="round" transform="translate(911.1771240234374 2487.1942138671875) rotate(0 458.0593744913737 151.820723215739)"><path d="M-0.39 -0.42 C276.87 -3.01, 553.83 -3.77, 916.85 -0.72 M0.32 0.1 C210.97 2.73, 422.97 3.13, 916.37 -0.16 M916.26 -0.04 C917.35 95.8, 914.98 191.39, 916.65 304.47 M915.89 -0.03 C916.53 118.11, 916.82 235.84, 916.81 304.33 M915.41 303.02 C658.43 300.5, 400.84 301.45, -0.13 302.87 M916.29 303.43 C711.55 301.5, 507.14 301.24, 0 303.95 M-0.63 304.8 C-2.62 190.14, -0.9 77.45, 0.43 1.41 M-0.17 303.77 C1.3 224.46, 0.33 145.68, 0.44 0.17" stroke="#000000" stroke-width="1" fill="none"></path></g><g transform="translate(2107.3865080333894 86.47779137747608) rotate(0 109.5 45)"><text x="109.5" y="32" font-family="Virgil, Segoe UI Emoji" font-size="36px" fill="#000000" text-anchor="middle" style="white-space: pre;" direction="ltr">Environments</text><text x="109.5" y="77" font-family="Virgil, Segoe UI Emoji" font-size="36px" fill="#000000" text-anchor="middle" style="white-space: pre;" direction="ltr"></text></g><g transform="translate(432.5984983898343 69.53223219371961) rotate(0 44.5 22.5)"><text x="44.5" y="32" font-family="Virgil, Segoe UI Emoji" font-size="36px" fill="#000000" text-anchor="middle" style="white-space: pre;" direction="ltr">Sleep</text></g><g transform="translate(394.01869492303763 569.3366806393575) rotate(0 56 22.5)"><text x="56" y="32" font-family="Virgil, Segoe UI Emoji" font-size="36px" fill="#000000" text-anchor="middle" style="white-space: pre;" direction="ltr">Feeling</text></g><g transform="translate(423.3428402855282 1041.3552251543315) rotate(0 61.5 22.5)"><text x="61.5" y="32" font-family="Virgil, Segoe UI Emoji" font-size="36px" fill="#000000" text-anchor="middle" style="white-space: pre;" direction="ltr">Working</text></g><g transform="translate(409.8562825520832 1513.1508242289226) rotate(0 61.5 22.5)"><text x="61.5" y="32" font-family="Virgil, Segoe UI Emoji" font-size="36px" fill="#000000" text-anchor="middle" style="white-space: pre;" direction="ltr">Morning</text></g><g transform="translate(388.54291788736964 2080.2756004333496) rotate(0 96 22.5)"><text x="96" y="32" font-family="Virgil, Segoe UI Emoji" font-size="36px" fill="#000000" text-anchor="middle" style="white-space: pre;" direction="ltr">Fundmental</text></g><g transform="translate(2195.6968514578684 556.4859421139669) rotate(0 38 22.5)"><text x="38" y="32" font-family="Virgil, Segoe UI Emoji" font-size="36px" fill="#000000" text-anchor="middle" style="white-space: pre;" direction="ltr">Diet</text></g><g transform="translate(2175.9333932059153 1048.8720861162456) rotate(0 69.5 22.5)"><text x="69.5" y="32" font-family="Virgil, Segoe UI Emoji" font-size="36px" fill="#000000" text-anchor="middle" style="white-space: pre;" direction="ltr">Posture</text></g><g transform="translate(1278.7110116141184 2548.813047318232) rotate(0 92.49999999999994 22.5)"><text x="92.5" y="32" font-family="Virgil, Segoe UI Emoji" font-size="36px" fill="#000000" text-anchor="middle" style="white-space: pre;" direction="ltr">Meditation</text></g><g transform="translate(2120.573265438988 1559.5012187049504) rotate(0 82 22.5)"><text x="82" y="32" font-family="Virgil, Segoe UI Emoji" font-size="36px" fill="#000000" text-anchor="middle" style="white-space: pre;" direction="ltr">Exercises</text></g><g transform="translate(2148.0895109630774 2069.9678579057963) rotate(0 45 22.5)"><text x="45" y="32" font-family="Virgil, Segoe UI Emoji" font-size="36px" fill="#000000" text-anchor="middle" style="white-space: pre;" direction="ltr">Habit</text></g><g transform="translate(1202.2855457124256 2623.718538193476) rotate(0 165 52.5)"><text x="0" y="25" font-family="Virgil, Segoe UI Emoji" font-size="28px" fill="#000000" text-anchor="start" style="white-space: pre;" direction="ltr">-exhale stomach expand</text><text x="0" y="60" font-family="Virgil, Segoe UI Emoji" font-size="28px" fill="#000000" text-anchor="start" style="white-space: pre;" direction="ltr">-inhale stomach shrink</text><text x="0" y="95" font-family="Virgil, Segoe UI Emoji" font-size="28px" fill="#000000" text-anchor="start" style="white-space: pre;" direction="ltr">-focus at the moment  </text></g><g transform="translate(2085.525342668806 1621.48203204927) rotate(0 116 17.5)"><text x="0" y="25" font-family="Virgil, Segoe UI Emoji" font-size="28px" fill="#000000" text-anchor="start" style="white-space: pre;" direction="ltr">-HIIT 15 minutes</text></g><g transform="translate(1968.2918882824129 149.03951699393116) rotate(0 249.5 35)"><text x="249.5" y="25" font-family="Virgil, Segoe UI Emoji" font-size="28px" fill="#000000" text-anchor="middle" style="white-space: pre;" direction="ltr">-getaway things steal concentration</text><text x="249.5" y="60" font-family="Virgil, Segoe UI Emoji" font-size="28px" fill="#000000" text-anchor="middle" style="white-space: pre;" direction="ltr">-in the desk only computer, books.</text></g><g transform="translate(223.69854009719094 139.84167916434137) rotate(0 234 52.5)"><text x="234" y="25" font-family="Virgil, Segoe UI Emoji" font-size="28px" fill="#000000" text-anchor="middle" style="white-space: pre;" direction="ltr">-sleep earlier 10PM</text><text x="234" y="60" font-family="Virgil, Segoe UI Emoji" font-size="28px" fill="#000000" text-anchor="middle" style="white-space: pre;" direction="ltr">-do not see blue light at night</text><text x="234" y="95" font-family="Virgil, Segoe UI Emoji" font-size="28px" fill="#000000" text-anchor="middle" style="white-space: pre;" direction="ltr">-everyday sleep at the same time</text></g><g transform="translate(254.0806913829985 616.0912061418803) rotate(0 231.5 52.5)"><text x="231.5" y="25" font-family="Virgil, Segoe UI Emoji" font-size="28px" fill="#000000" text-anchor="middle" style="white-space: pre;" direction="ltr">-write down nervous things </text><text x="231.5" y="60" font-family="Virgil, Segoe UI Emoji" font-size="28px" fill="#000000" text-anchor="middle" style="white-space: pre;" direction="ltr">-use negative feeling to motivate</text><text x="231.5" y="95" font-family="Virgil, Segoe UI Emoji" font-size="28px" fill="#000000" text-anchor="middle" style="white-space: pre;" direction="ltr">-tired is caused by the eyes</text></g><g transform="translate(131.50239853631876 1096.4745374407087) rotate(0 352 122.5)"><text x="352" y="25" font-family="Virgil, Segoe UI Emoji" font-size="28px" fill="#000000" text-anchor="middle" style="white-space: pre;" direction="ltr">-sleep 15minutes after lunch time refresh will power</text><text x="352" y="60" font-family="Virgil, Segoe UI Emoji" font-size="28px" fill="#000000" text-anchor="middle" style="white-space: pre;" direction="ltr">-25 minutes break 5minutes </text><text x="352" y="95" font-family="Virgil, Segoe UI Emoji" font-size="28px" fill="#000000" text-anchor="middle" style="white-space: pre;" direction="ltr">-combine coffee with yogurt increase will power</text><text x="352" y="130" font-family="Virgil, Segoe UI Emoji" font-size="28px" fill="#000000" text-anchor="middle" style="white-space: pre;" direction="ltr">-don't touch smartphone when break</text><text x="352" y="165" font-family="Virgil, Segoe UI Emoji" font-size="28px" fill="#000000" text-anchor="middle" style="white-space: pre;" direction="ltr">-eat nuts increase will power after 3 hours lunch</text><text x="352" y="200" font-family="Virgil, Segoe UI Emoji" font-size="28px" fill="#000000" text-anchor="middle" style="white-space: pre;" direction="ltr">-go to the park, mediation when break </text><text x="352" y="235" font-family="Virgil, Segoe UI Emoji" font-size="28px" fill="#000000" text-anchor="middle" style="white-space: pre;" direction="ltr"></text></g><g transform="translate(97.81128147670194 1553.8735605875652) rotate(0 353.5 175)"><text x="353.5" y="25" font-family="Virgil, Segoe UI Emoji" font-size="28px" fill="#000000" text-anchor="middle" style="white-space: pre;" direction="ltr">-touch movitation words</text><text x="353.5" y="60" font-family="Virgil, Segoe UI Emoji" font-size="28px" fill="#000000" text-anchor="middle" style="white-space: pre;" direction="ltr">-do exercises</text><text x="353.5" y="95" font-family="Virgil, Segoe UI Emoji" font-size="28px" fill="#000000" text-anchor="middle" style="white-space: pre;" direction="ltr">-create the plan that day in 10 minutes</text><text x="353.5" y="130" font-family="Virgil, Segoe UI Emoji" font-size="28px" fill="#000000" text-anchor="middle" style="white-space: pre;" direction="ltr">-meditation</text><text x="353.5" y="165" font-family="Virgil, Segoe UI Emoji" font-size="28px" fill="#000000" text-anchor="middle" style="white-space: pre;" direction="ltr">-be grateful books, computer</text><text x="353.5" y="200" font-family="Virgil, Segoe UI Emoji" font-size="28px" fill="#000000" text-anchor="middle" style="white-space: pre;" direction="ltr">-take breakfast</text><text x="353.5" y="235" font-family="Virgil, Segoe UI Emoji" font-size="28px" fill="#000000" text-anchor="middle" style="white-space: pre;" direction="ltr">-ask if today is last day of your life what you do</text><text x="353.5" y="270" font-family="Virgil, Segoe UI Emoji" font-size="28px" fill="#000000" text-anchor="middle" style="white-space: pre;" direction="ltr"></text><text x="353.5" y="305" font-family="Virgil, Segoe UI Emoji" font-size="28px" fill="#000000" text-anchor="middle" style="white-space: pre;" direction="ltr"></text><text x="353.5" y="340" font-family="Virgil, Segoe UI Emoji" font-size="28px" fill="#000000" text-anchor="middle" style="white-space: pre;" direction="ltr"></text></g><g transform="translate(206.4929933093841 2136.8616994222) rotate(0 260.5 87.5)"><text x="260.5" y="25" font-family="Virgil, Segoe UI Emoji" font-size="28px" fill="#000000" text-anchor="middle" style="white-space: pre;" direction="ltr">-create 6 things in order of prioritize</text><text x="260.5" y="60" font-family="Virgil, Segoe UI Emoji" font-size="28px" fill="#000000" text-anchor="middle" style="white-space: pre;" direction="ltr">-morning: time learning</text><text x="260.5" y="95" font-family="Virgil, Segoe UI Emoji" font-size="28px" fill="#000000" text-anchor="middle" style="white-space: pre;" direction="ltr">-afternoon: time practice</text><text x="260.5" y="130" font-family="Virgil, Segoe UI Emoji" font-size="28px" fill="#000000" text-anchor="middle" style="white-space: pre;" direction="ltr">-night: time review</text><text x="260.5" y="165" font-family="Virgil, Segoe UI Emoji" font-size="28px" fill="#000000" text-anchor="middle" style="white-space: pre;" direction="ltr"></text></g><g transform="translate(2047.1921771821521 635.3166089739116) rotate(0 176.5 35)"><text x="176.5" y="25" font-family="Virgil, Segoe UI Emoji" font-size="28px" fill="#000000" text-anchor="middle" style="white-space: pre;" direction="ltr">-eat low GI foods</text><text x="176.5" y="60" font-family="Virgil, Segoe UI Emoji" font-size="28px" fill="#000000" text-anchor="middle" style="white-space: pre;" direction="ltr">-soba, fish, yogurt, fruits</text></g><g transform="translate(2034.8906940278557 1115.541683741978) rotate(0 198.5 70)"><text x="198.5" y="25" font-family="Virgil, Segoe UI Emoji" font-size="28px" fill="#000000" text-anchor="middle" style="white-space: pre;" direction="ltr">-raise up chin</text><text x="198.5" y="60" font-family="Virgil, Segoe UI Emoji" font-size="28px" fill="#000000" text-anchor="middle" style="white-space: pre;" direction="ltr">-put feet on the ground</text><text x="198.5" y="95" font-family="Virgil, Segoe UI Emoji" font-size="28px" fill="#000000" text-anchor="middle" style="white-space: pre;" direction="ltr">-butt and back perpendicular</text><text x="198.5" y="130" font-family="Virgil, Segoe UI Emoji" font-size="28px" fill="#000000" text-anchor="middle" style="white-space: pre;" direction="ltr"></text></g><g transform="translate(1965.9739866710847 2137.4398262387226) rotate(0 259.5000000000001 17.5)"><text x="259.5" y="25" font-family="Virgil, Segoe UI Emoji" font-size="28px" fill="#000000" text-anchor="middle" style="white-space: pre;" direction="ltr">-repeat something decrease will power</text></g><g stroke-linecap="round" transform="translate(1149.8502684093655 842.2620715186712) rotate(0 188.441416422526 237.850341796875)"><path d="M236.89 7.28 C252.88 8.79, 267.82 22.19, 282.04 32.79 C296.25 43.39, 310.2 56.06, 322.2 70.86 C334.19 85.65, 345.66 103.01, 353.99 121.56 C362.32 140.11, 368.33 161.47, 372.17 182.16 C376.02 202.84, 377.62 224.61, 377.06 245.64 C376.49 266.68, 373.86 288.2, 368.79 308.35 C363.71 328.5, 355.56 348.93, 346.59 366.54 C337.63 384.15, 327.28 399.99, 314.99 414.01 C302.69 428.04, 287.76 441, 272.84 450.69 C257.92 460.38, 241.67 468.25, 225.46 472.15 C209.25 476.06, 192.27 475.84, 175.58 474.1 C158.89 472.37, 141.06 468.74, 125.34 461.74 C109.61 454.74, 94.77 444.18, 81.23 432.08 C67.69 419.99, 54.95 405.15, 44.07 389.17 C33.2 373.19, 22.93 355.3, 15.99 336.21 C9.06 317.11, 4.9 295.63, 2.46 274.59 C0.02 253.54, -0.42 230.86, 1.35 209.93 C3.13 189.01, 7.01 168.39, 13.11 149.05 C19.22 129.7, 27.79 110.63, 37.97 93.85 C48.15 77.07, 60.61 61.23, 74.2 48.37 C87.79 35.52, 103.97 24.42, 119.49 16.72 C135.02 9.01, 150.85 4.4, 167.35 2.13 C183.86 -0.14, 204.85 1.39, 218.53 3.11 C232.22 4.84, 241.97 9.11, 249.45 12.5 C256.93 15.89, 264.25 19.63, 263.4 23.46 M177.19 -0.21 C193.01 -5.02, 210.85 1.66, 227.39 6.24 C243.92 10.82, 261.65 17.92, 276.4 27.28 C291.14 36.64, 303.63 48.41, 315.85 62.4 C328.06 76.39, 341.03 93.13, 349.7 111.22 C358.38 129.32, 363.61 150.74, 367.9 170.98 C372.19 191.21, 374.77 211.72, 375.44 232.64 C376.1 253.55, 375.57 275.87, 371.91 296.5 C368.25 317.12, 361.75 338.08, 353.47 356.37 C345.19 374.65, 334.12 391.39, 322.21 406.2 C310.29 421.01, 296.9 434.68, 281.98 445.25 C267.06 455.82, 249.02 464.77, 232.68 469.62 C216.35 474.47, 200.35 474.98, 183.96 474.35 C167.58 473.71, 150.36 471.59, 134.38 465.8 C118.41 460.01, 102.33 450.75, 88.1 439.58 C73.87 428.41, 60.45 414.26, 49.02 398.77 C37.58 383.29, 27.07 365.32, 19.48 346.65 C11.9 327.99, 6.83 307.63, 3.5 286.8 C0.18 265.96, -1.52 243.03, -0.49 221.64 C0.55 200.26, 4.14 178.43, 9.72 158.51 C15.3 138.58, 23.22 119.42, 32.99 102.08 C42.76 84.73, 55.35 67.68, 68.35 54.43 C81.35 41.17, 95.91 31.05, 111.01 22.55 C126.11 14.05, 147.95 7.23, 158.96 3.43 C169.97 -0.37, 174.06 -0.4, 177.1 -0.24 C180.13 -0.09, 177.2 0.41, 177.18 4.37" stroke="#000000" stroke-width="1" fill="none"></path></g><g stroke-linecap="round"><g transform="translate(936.8370095500989 151.45058303994313) rotate(0 152.001746963384 359.4992870060242)"><path d="M-0.55 0.96 C50.14 120.49, 253.86 597.76, 304.56 717.49 M1.36 0.41 C51.95 120.05, 253.86 599.07, 304.13 718.59" stroke="#000000" stroke-width="1" fill="none"></path></g><g transform="translate(936.8370095500989 151.45058303994313) rotate(0 152.001746963384 359.4992870060242)"><path d="M285.32 698.24 C289.18 704.15, 299.02 713.28, 302.84 717.18 M284.19 697.06 C289.77 703.41, 295.32 709.41, 304.04 718.17" stroke="#000000" stroke-width="1" fill="none"></path></g><g transform="translate(936.8370095500989 151.45058303994313) rotate(0 152.001746963384 359.4992870060242)"><path d="M304.23 690.27 C301.81 698.75, 305.35 710.53, 302.84 717.18 M303.1 689.09 C302.95 697.94, 302.75 706.36, 304.04 718.17" stroke="#000000" stroke-width="1" fill="none"></path></g></g><g stroke-linecap="round"><g transform="translate(1761.5638609779026 110.22041630700096) rotate(0 -180.11564485055726 376.01964009271563)"><path d="M0.91 1.16 C-59.3 126.56, -300.14 626.33, -360.47 751.32 M-0.08 0.72 C-60.46 125.91, -300.83 625.05, -361.14 749.8" stroke="#000000" stroke-width="1" fill="none"></path></g><g transform="translate(1761.5638609779026 110.22041630700096) rotate(0 -180.11564485055726 376.01964009271563)"><path d="M-356.2 720.84 C-357.58 730.7, -359.05 743.27, -360.19 750.24 M-357.4 720.67 C-360.1 731.75, -360.33 741.23, -361.04 749.56" stroke="#000000" stroke-width="1" fill="none"></path></g><g transform="translate(1761.5638609779026 110.22041630700096) rotate(0 -180.11564485055726 376.01964009271563)"><path d="M-337.72 729.76 C-345.75 736.5, -353.95 745.83, -360.19 750.24 M-338.91 729.59 C-348.53 737.34, -355.63 743.51, -361.04 749.56" stroke="#000000" stroke-width="1" fill="none"></path></g></g><g stroke-linecap="round"><g transform="translate(933.124192153442 1114.3408438723015) rotate(0 107.24245728670999 -3.549977563557718)"><path d="M-0.45 0.1 C35.49 -1.19, 178.85 -6.14, 214.93 -7.2 M1.52 -0.89 C37.36 -2.11, 178.28 -5.52, 214.01 -6.2" stroke="#000000" stroke-width="1" fill="none"></path></g><g transform="translate(933.124192153442 1114.3408438723015) rotate(0 107.24245728670999 -3.549977563557718)"><path d="M186.22 4.76 C191.12 4.07, 199.49 -1.54, 214.27 -4.74 M186.82 4.31 C194.73 1.38, 205.01 -1.84, 213.98 -6.51" stroke="#000000" stroke-width="1" fill="none"></path></g><g transform="translate(933.124192153442 1114.3408438723015) rotate(0 107.24245728670999 -3.549977563557718)"><path d="M185.77 -15.76 C190.87 -11.43, 199.34 -12.02, 214.27 -4.74 M186.37 -16.21 C194.45 -12.47, 204.88 -9.02, 213.98 -6.51" stroke="#000000" stroke-width="1" fill="none"></path></g></g><g stroke-linecap="round"><g transform="translate(1770.1392451081067 1109.4240467296877) rotate(0 -121.60590598635656 -0.30788111783982686)"><path d="M0.41 -0.45 C-39.93 -0.28, -202.09 1.15, -242.88 1.14 M-0.84 -1.73 C-41.23 -1.92, -203.44 -1.03, -243.62 -0.7" stroke="#000000" stroke-width="1" fill="none"></path></g><g transform="translate(1770.1392451081067 1109.4240467296877) rotate(0 -121.60590598635656 -0.30788111783982686)"><path d="M-216.25 -10.49 C-221.12 -10.34, -230.35 -8.15, -244.66 1.02 M-215.66 -10.83 C-220.96 -8.07, -227.61 -6.9, -242.66 0.24" stroke="#000000" stroke-width="1" fill="none"></path></g><g transform="translate(1770.1392451081067 1109.4240467296877) rotate(0 -121.60590598635656 -0.30788111783982686)"><path d="M-216.11 10.03 C-221.03 5.42, -230.3 2.84, -244.66 1.02 M-215.53 9.69 C-220.74 8.13, -227.42 4.98, -242.66 0.24" stroke="#000000" stroke-width="1" fill="none"></path></g></g><g stroke-linecap="round"><g transform="translate(933.063707184135 1659.2422377062287) rotate(0 140.4634787914849 -198.83867254909921)"><path d="M-0.41 0.84 C46.68 -65.41, 234.35 -332.17, 281.33 -398.52 M1.58 0.24 C48.7 -65.78, 234.28 -330.77, 280.9 -397.36" stroke="#000000" stroke-width="1" fill="none"></path></g><g transform="translate(933.063707184135 1659.2422377062287) rotate(0 140.4634787914849 -198.83867254909921)"><path d="M274.54 -366.75 C273.74 -372.32, 277.41 -379.79, 280.17 -398.51 M272.9 -369.17 C275.2 -378.56, 279.37 -388.39, 280.8 -396.94" stroke="#000000" stroke-width="1" fill="none"></path></g><g transform="translate(933.063707184135 1659.2422377062287) rotate(0 140.4634787914849 -198.83867254909921)"><path d="M257.73 -378.52 C260.23 -381.66, 267.29 -386.75, 280.17 -398.51 M256.09 -380.94 C264.24 -386.3, 274.36 -391.95, 280.8 -396.94" stroke="#000000" stroke-width="1" fill="none"></path></g></g><g stroke-linecap="round"><g transform="translate(1765.371743613446 1666.171648494722) rotate(0 -140.26647689600463 -208.01685289932738)"><path d="M0.4 0.35 C-46.15 -69.16, -233.22 -346.92, -280.18 -416.38 M-0.85 -0.51 C-47.45 -69.89, -234.6 -345.84, -280.94 -414.96" stroke="#000000" stroke-width="1" fill="none"></path></g><g transform="translate(1765.371743613446 1666.171648494722) rotate(0 -140.26647689600463 -208.01685289932738)"><path d="M-256.08 -396.72 C-262.7 -402.6, -268.32 -406.05, -282.14 -413.71 M-255.89 -397.44 C-265.17 -403.45, -274.46 -409.6, -281.2 -415.68" stroke="#000000" stroke-width="1" fill="none"></path></g><g transform="translate(1765.371743613446 1666.171648494722) rotate(0 -140.26647689600463 -208.01685289932738)"><path d="M-273.09 -385.25 C-275.86 -393.82, -277.57 -399.9, -282.14 -413.71 M-272.9 -385.96 C-276.03 -395.93, -279.27 -406.17, -281.2 -415.68" stroke="#000000" stroke-width="1" fill="none"></path></g></g><g stroke-linecap="round"><g transform="translate(929.075301852042 2171.7663897853695) rotate(0 166.05009823110734 -436.72346638096934)"><path d="M-0.83 0.85 C54.36 -144.98, 275.21 -728.47, 330.83 -874.3 M0.94 0.25 C56.5 -145.51, 277.65 -727.63, 332.93 -873.2" stroke="#000000" stroke-width="1" fill="none"></path></g><g transform="translate(929.075301852042 2171.7663897853695) rotate(0 166.05009823110734 -436.72346638096934)"><path d="M333.93 -845.15 C331.06 -849.97, 331.46 -860.37, 333.69 -874.06 M332.83 -843.28 C332.78 -850.78, 331.91 -859.76, 332.09 -873.74" stroke="#000000" stroke-width="1" fill="none"></path></g><g transform="translate(929.075301852042 2171.7663897853695) rotate(0 166.05009823110734 -436.72346638096934)"><path d="M314.74 -852.44 C317.2 -855.12, 322.89 -863.51, 333.69 -874.06 M313.65 -850.57 C319.05 -855.86, 323.56 -862.8, 332.09 -873.74" stroke="#000000" stroke-width="1" fill="none"></path></g></g><g stroke-linecap="round"><g transform="translate(1768.9868073164816 2157.1957502103905) rotate(0 -173.06178111526003 -426.94291595169074)"><path d="M-0.25 0.96 C-58.37 -141.4, -290.08 -710.88, -347.94 -853.22 M1.82 0.42 C-55.98 -142.34, -287.25 -712.29, -345.59 -854.85" stroke="#000000" stroke-width="1" fill="none"></path></g><g transform="translate(1768.9868073164816 2157.1957502103905) rotate(0 -173.06178111526003 -426.94291595169074)"><path d="M-323.86 -833.75 C-331.4 -841.03, -338.57 -848.45, -343.65 -855.69 M-325.63 -831.69 C-333.37 -841.96, -340.67 -849.89, -345.58 -854.24" stroke="#000000" stroke-width="1" fill="none"></path></g><g transform="translate(1768.9868073164816 2157.1957502103905) rotate(0 -173.06178111526003 -426.94291595169074)"><path d="M-342.86 -826.01 C-343.51 -836.08, -343.73 -846.33, -343.65 -855.69 M-344.64 -823.95 C-344.84 -837.26, -344.66 -848.24, -345.58 -854.24" stroke="#000000" stroke-width="1" fill="none"></path></g></g><g stroke-linecap="round"><g transform="translate(1346.8971912914549 2474.870855979195) rotate(0 -4.518823929532687 -578.4382655759824)"><path d="M-0.23 -0.09 C-1.57 -192.76, -6.52 -964, -7.97 -1156.79 M-1.81 -1.18 C-3.29 -193.61, -8.04 -963.01, -8.81 -1155.44" stroke="#000000" stroke-width="1" fill="none"></path></g><g transform="translate(1346.8971912914549 2474.870855979195) rotate(0 -4.518823929532687 -578.4382655759824)"><path d="M1.46 -1126.96 C-1.97 -1137.15, -5.21 -1142.64, -8.74 -1153.83 M2.02 -1128.22 C-2.41 -1136.47, -6.24 -1147.79, -9.15 -1156.06" stroke="#000000" stroke-width="1" fill="none"></path></g><g transform="translate(1346.8971912914549 2474.870855979195) rotate(0 -4.518823929532687 -578.4382655759824)"><path d="M-19.07 -1126.85 C-16.24 -1137.04, -13.23 -1142.56, -8.74 -1153.83 M-18.51 -1128.11 C-15.71 -1136.33, -12.33 -1147.69, -9.15 -1156.06" stroke="#000000" stroke-width="1" fill="none"></path></g></g><g stroke-linecap="round"><g transform="translate(928.6773089445524 649.9268241383695) rotate(0 115.8998907084817 171.91651345144587)"><path d="M0.67 -0.01 C38.95 57.13, 191.68 286.28, 229.88 343.51 M-0.43 -1.06 C38.22 56.2, 193.43 287.3, 232.23 344.89" stroke="#000000" stroke-width="1" fill="none"></path></g><g transform="translate(928.6773089445524 649.9268241383695) rotate(0 115.8998907084817 171.91651345144587)"><path d="M207.97 326.09 C215.3 331.51, 222.84 338.07, 231.2 343.56 M207.35 328 C214.21 330.33, 219.4 335.04, 232.61 345.3" stroke="#000000" stroke-width="1" fill="none"></path></g><g transform="translate(928.6773089445524 649.9268241383695) rotate(0 115.8998907084817 171.91651345144587)"><path d="M225 314.63 C226.96 323.8, 229.08 334.01, 231.2 343.56 M224.38 316.55 C227.64 321.34, 229.15 328.52, 232.61 345.3" stroke="#000000" stroke-width="1" fill="none"></path></g></g><g stroke-linecap="round"><g transform="translate(1762.034298573672 622.6363401700959) rotate(0 -126.93069302008792 174.66186961883363)"><path d="M-0.85 -0.74 C-43.14 57.44, -211.87 291.62, -254.34 350.06 M0.9 1.49 C-41.4 59.82, -211.84 289.85, -254.76 348.16" stroke="#000000" stroke-width="1" fill="none"></path></g><g transform="translate(1762.034298573672 622.6363401700959) rotate(0 -126.93069302008792 174.66186961883363)"><path d="M-247.49 321.07 C-247.4 325.87, -249.74 331.64, -253.78 349.63 M-245.69 319.34 C-249.65 326.63, -250.87 335.36, -255.7 347.97" stroke="#000000" stroke-width="1" fill="none"></path></g><g transform="translate(1762.034298573672 622.6363401700959) rotate(0 -126.93069302008792 174.66186961883363)"><path d="M-230.98 333.26 C-235.07 334.94, -241.48 337.71, -253.78 349.63 M-229.19 331.53 C-237.81 335.27, -243.75 340.53, -255.7 347.97" stroke="#000000" stroke-width="1" fill="none"></path></g></g></svg>